# xmcd CD database file
#
# Track frame offsets:
#	150
#	16782
#	35250
#	55892
#	79057
#	99917
#	119705
#	143645
#	146137
#	174077
#	176485
#	188272
#
# Disc length: 2693 seconds
#
# Revision: 7
# Processed by: cddbd v1.5.2PL0 Copyright (c) Steve Scherf et al.
# Submitted via: CDex 1.51
#
DISCID=8f0a830c
DTITLE=Duran Duran - Big Thing
DYEAR=1988
DGENRE=Rock
TTITLE0=Big Thing
TTITLE1=I Don't Want Your Love
TTITLE2=All She Wants Is
TTITLE3=Too Late Marlene
TTITLE4=Drug (It's Just A State Of Mind)
TTITLE5=Do You Believe In Shame?
TTITLE6=Palomino
TTITLE7=Interlude One
TTITLE8=Land
TTITLE9=Flute Interlude
TTITLE10=The Edge Of America
TTITLE11=Lake Shore Driving
EXTD=YEAR: 1988
EXTT0=
EXTT1=
EXTT2=
EXTT3=
EXTT4=
EXTT5=
EXTT6=
EXTT7=
EXTT8=
EXTT9=
EXTT10=
EXTT11=
PLAYORDER=
